<svg xmlns="http://www.w3.org/2000/svg" xmlns:xlink="http://www.w3.org/1999/xlink" width="500" zoomAndPan="magnify" viewBox="60 60 280 200" height="500" preserveAspectRatio="xMidYMid meet" version="1.0"><defs><g/></defs><g fill="#ffffff" fill-opacity="1"><g transform="translate(199.797121, 176.703344)"><g><path d="M 4.3125 -24.625 L 4.3125 -33.796875 L 12.8125 -33.796875 L 12.8125 -24.625 L 18 -24.625 L 18 -18.140625 L 12.8125 -18.140625 L 12.8125 -10.3125 C 12.8125 -8.039062 13.453125 -6.90625 14.734375 -6.90625 C 15.054688 -6.90625 15.390625 -6.96875 15.734375 -7.09375 C 16.085938 -7.226562 16.363281 -7.359375 16.5625 -7.484375 L 16.84375 -7.6875 L 18.953125 -0.8125 C 17.128906 0.207031 15.050781 0.71875 12.71875 0.71875 C 11.113281 0.71875 9.734375 0.441406 8.578125 -0.109375 C 7.429688 -0.671875 6.5625 -1.425781 5.96875 -2.375 C 5.382812 -3.320312 4.960938 -4.3125 4.703125 -5.34375 C 4.441406 -6.382812 4.3125 -7.5 4.3125 -8.6875 L 4.3125 -18.140625 L 0.765625 -18.140625 L 0.765625 -24.625 Z M 4.3125 -24.625 "/></g></g></g><g fill="#ffffff" fill-opacity="1"><g transform="translate(214.245086, 176.703344)"><g><path d="M 4.3125 -24.625 L 4.3125 -33.796875 L 12.8125 -33.796875 L 12.8125 -24.625 L 18 -24.625 L 18 -18.140625 L 12.8125 -18.140625 L 12.8125 -10.3125 C 12.8125 -8.039062 13.453125 -6.90625 14.734375 -6.90625 C 15.054688 -6.90625 15.390625 -6.96875 15.734375 -7.09375 C 16.085938 -7.226562 16.363281 -7.359375 16.5625 -7.484375 L 16.84375 -7.6875 L 18.953125 -0.8125 C 17.128906 0.207031 15.050781 0.71875 12.71875 0.71875 C 11.113281 0.71875 9.734375 0.441406 8.578125 -0.109375 C 7.429688 -0.671875 6.5625 -1.425781 5.96875 -2.375 C 5.382812 -3.320312 4.960938 -4.3125 4.703125 -5.34375 C 4.441406 -6.382812 4.3125 -7.5 4.3125 -8.6875 L 4.3125 -18.140625 L 0.765625 -18.140625 L 0.765625 -24.625 Z M 4.3125 -24.625 "/></g></g></g><g fill="#ffffff" fill-opacity="1"><g transform="translate(228.693051, 176.703344)"><g><path d="M 4.3125 -38.84375 C 5.28125 -39.820312 6.453125 -40.3125 7.828125 -40.3125 C 9.203125 -40.3125 10.382812 -39.816406 11.375 -38.828125 C 12.363281 -37.835938 12.859375 -36.65625 12.859375 -35.28125 C 12.859375 -31.050781 10.425781 -26.90625 5.5625 -22.84375 L 3.3125 -24.625 C 3.5 -24.8125 3.742188 -25.070312 4.046875 -25.40625 C 4.359375 -25.75 4.816406 -26.457031 5.421875 -27.53125 C 6.035156 -28.601562 6.4375 -29.679688 6.625 -30.765625 C 5.53125 -31.023438 4.628906 -31.566406 3.921875 -32.390625 C 3.222656 -33.222656 2.875 -34.1875 2.875 -35.28125 C 2.875 -36.6875 3.351562 -37.875 4.3125 -38.84375 Z M 4.3125 -38.84375 "/></g></g></g><g fill="#ffffff" fill-opacity="1"><g transform="translate(238.149023, 176.703344)"><g><path d="M 13.578125 -25.34375 C 14.992188 -25.34375 16.390625 -25.179688 17.765625 -24.859375 C 19.140625 -24.546875 20.160156 -24.226562 20.828125 -23.90625 L 21.84375 -23.421875 L 19.0625 -17.859375 C 17.132812 -18.878906 15.304688 -19.390625 13.578125 -19.390625 C 12.617188 -19.390625 11.9375 -19.285156 11.53125 -19.078125 C 11.132812 -18.867188 10.9375 -18.476562 10.9375 -17.90625 C 10.9375 -17.78125 10.953125 -17.648438 10.984375 -17.515625 C 11.023438 -17.390625 11.09375 -17.269531 11.1875 -17.15625 C 11.28125 -17.039062 11.363281 -16.941406 11.4375 -16.859375 C 11.519531 -16.785156 11.65625 -16.703125 11.84375 -16.609375 C 12.039062 -16.515625 12.195312 -16.441406 12.3125 -16.390625 C 12.425781 -16.335938 12.609375 -16.265625 12.859375 -16.171875 C 13.117188 -16.078125 13.3125 -16.003906 13.4375 -15.953125 C 13.5625 -15.910156 13.773438 -15.835938 14.078125 -15.734375 C 14.390625 -15.640625 14.625 -15.578125 14.78125 -15.546875 C 15.769531 -15.265625 16.632812 -14.945312 17.375 -14.59375 C 18.113281 -14.238281 18.890625 -13.753906 19.703125 -13.140625 C 20.515625 -12.535156 21.144531 -11.769531 21.59375 -10.84375 C 22.039062 -9.914062 22.265625 -8.863281 22.265625 -7.6875 C 22.265625 -2.082031 18.378906 0.71875 10.609375 0.71875 C 8.847656 0.71875 7.175781 0.445312 5.59375 -0.09375 C 4.007812 -0.632812 2.863281 -1.179688 2.15625 -1.734375 L 1.109375 -2.59375 L 4.5625 -8.40625 C 4.8125 -8.175781 5.144531 -7.910156 5.5625 -7.609375 C 5.976562 -7.304688 6.726562 -6.890625 7.8125 -6.359375 C 8.90625 -5.828125 9.851562 -5.5625 10.65625 -5.5625 C 12.414062 -5.5625 13.296875 -6.15625 13.296875 -7.34375 C 13.296875 -7.882812 13.070312 -8.304688 12.625 -8.609375 C 12.175781 -8.921875 11.414062 -9.265625 10.34375 -9.640625 C 9.269531 -10.023438 8.429688 -10.378906 7.828125 -10.703125 C 6.285156 -11.503906 5.066406 -12.40625 4.171875 -13.40625 C 3.273438 -14.414062 2.828125 -15.753906 2.828125 -17.421875 C 2.828125 -19.921875 3.796875 -21.863281 5.734375 -23.25 C 7.671875 -24.644531 10.285156 -25.34375 13.578125 -25.34375 Z M 13.578125 -25.34375 "/></g></g></g><g fill="#ffffff" fill-opacity="1"><g transform="translate(122.022309, 207.153342)"><g><path d="M 7.640625 -7.96875 C 7.847656 -7.96875 8.019531 -7.898438 8.15625 -7.765625 C 8.289062 -7.628906 8.359375 -7.453125 8.359375 -7.234375 L 8.359375 -0.625 C 8.359375 0.175781 8.179688 0.847656 7.828125 1.390625 C 7.484375 1.941406 7.015625 2.347656 6.421875 2.609375 C 5.835938 2.867188 5.175781 3 4.4375 3 C 4.039062 3 3.570312 2.925781 3.03125 2.78125 C 2.5 2.644531 2.160156 2.503906 2.015625 2.359375 C 1.703125 2.191406 1.546875 1.988281 1.546875 1.75 C 1.546875 1.695312 1.566406 1.617188 1.609375 1.515625 C 1.710938 1.265625 1.894531 1.140625 2.15625 1.140625 C 2.289062 1.140625 2.429688 1.171875 2.578125 1.234375 C 3.378906 1.535156 4.003906 1.6875 4.453125 1.6875 C 5.253906 1.6875 5.867188 1.492188 6.296875 1.109375 C 6.722656 0.734375 6.9375 0.207031 6.9375 -0.46875 L 6.9375 -1.28125 C 6.71875 -0.882812 6.359375 -0.546875 5.859375 -0.265625 C 5.367188 0.015625 4.851562 0.15625 4.3125 0.15625 C 3.613281 0.15625 2.976562 -0.0195312 2.40625 -0.375 C 1.84375 -0.726562 1.394531 -1.21875 1.0625 -1.84375 C 0.738281 -2.46875 0.578125 -3.164062 0.578125 -3.9375 C 0.578125 -4.71875 0.738281 -5.421875 1.0625 -6.046875 C 1.394531 -6.671875 1.84375 -7.160156 2.40625 -7.515625 C 2.96875 -7.867188 3.59375 -8.046875 4.28125 -8.046875 C 4.820312 -8.046875 5.332031 -7.921875 5.8125 -7.671875 C 6.289062 -7.421875 6.664062 -7.113281 6.9375 -6.75 L 6.9375 -7.234375 C 6.9375 -7.441406 7 -7.613281 7.125 -7.75 C 7.25 -7.894531 7.421875 -7.96875 7.640625 -7.96875 Z M 4.46875 -1.171875 C 4.957031 -1.171875 5.390625 -1.285156 5.765625 -1.515625 C 6.148438 -1.753906 6.445312 -2.085938 6.65625 -2.515625 C 6.875 -2.941406 6.984375 -3.414062 6.984375 -3.9375 C 6.984375 -4.46875 6.875 -4.941406 6.65625 -5.359375 C 6.445312 -5.785156 6.148438 -6.117188 5.765625 -6.359375 C 5.390625 -6.597656 4.957031 -6.71875 4.46875 -6.71875 C 3.988281 -6.71875 3.554688 -6.597656 3.171875 -6.359375 C 2.796875 -6.117188 2.5 -5.785156 2.28125 -5.359375 C 2.070312 -4.929688 1.96875 -4.457031 1.96875 -3.9375 C 1.96875 -3.425781 2.070312 -2.957031 2.28125 -2.53125 C 2.5 -2.101562 2.796875 -1.769531 3.171875 -1.53125 C 3.554688 -1.289062 3.988281 -1.171875 4.46875 -1.171875 Z M 4.46875 -1.171875 "/></g></g></g><g fill="#ffffff" fill-opacity="1"><g transform="translate(141.207304, 207.153342)"><g><path d="M 2.609375 -0.71875 C 2.609375 -0.519531 2.535156 -0.347656 2.390625 -0.203125 C 2.253906 -0.0664062 2.085938 0 1.890625 0 C 1.691406 0 1.523438 -0.0664062 1.390625 -0.203125 C 1.253906 -0.347656 1.1875 -0.519531 1.1875 -0.71875 L 1.1875 -10.375 C 1.1875 -10.582031 1.253906 -10.753906 1.390625 -10.890625 C 1.535156 -11.023438 1.707031 -11.09375 1.90625 -11.09375 C 2.101562 -11.09375 2.269531 -11.023438 2.40625 -10.890625 C 2.539062 -10.753906 2.609375 -10.582031 2.609375 -10.375 Z M 2.609375 -0.71875 "/></g></g></g><g fill="#ffffff" fill-opacity="1"><g transform="translate(154.782301, 207.153342)"><g><path d="M 8.5 -3.9375 C 8.5 -3.15625 8.320312 -2.453125 7.96875 -1.828125 C 7.625 -1.210938 7.148438 -0.726562 6.546875 -0.375 C 5.941406 -0.0195312 5.273438 0.15625 4.546875 0.15625 C 3.816406 0.15625 3.148438 -0.0195312 2.546875 -0.375 C 1.941406 -0.726562 1.460938 -1.210938 1.109375 -1.828125 C 0.753906 -2.453125 0.578125 -3.15625 0.578125 -3.9375 C 0.578125 -4.707031 0.753906 -5.40625 1.109375 -6.03125 C 1.460938 -6.664062 1.941406 -7.160156 2.546875 -7.515625 C 3.148438 -7.867188 3.816406 -8.046875 4.546875 -8.046875 C 5.273438 -8.046875 5.941406 -7.867188 6.546875 -7.515625 C 7.148438 -7.160156 7.625 -6.664062 7.96875 -6.03125 C 8.320312 -5.40625 8.5 -4.707031 8.5 -3.9375 Z M 7.078125 -3.9375 C 7.078125 -4.46875 6.960938 -4.945312 6.734375 -5.375 C 6.515625 -5.800781 6.210938 -6.128906 5.828125 -6.359375 C 5.441406 -6.597656 5.015625 -6.71875 4.546875 -6.71875 C 4.078125 -6.71875 3.648438 -6.597656 3.265625 -6.359375 C 2.878906 -6.128906 2.570312 -5.800781 2.34375 -5.375 C 2.125 -4.945312 2.015625 -4.46875 2.015625 -3.9375 C 2.015625 -3.40625 2.125 -2.925781 2.34375 -2.5 C 2.570312 -2.082031 2.878906 -1.753906 3.265625 -1.515625 C 3.648438 -1.285156 4.078125 -1.171875 4.546875 -1.171875 C 5.015625 -1.171875 5.441406 -1.285156 5.828125 -1.515625 C 6.210938 -1.753906 6.515625 -2.082031 6.734375 -2.5 C 6.960938 -2.925781 7.078125 -3.40625 7.078125 -3.9375 Z M 7.078125 -3.9375 "/></g></g></g><g fill="#ffffff" fill-opacity="1"><g transform="translate(173.652297, 207.153342)"><g><path d="M 10.25 -7.9375 C 10.4375 -7.9375 10.597656 -7.867188 10.734375 -7.734375 C 10.867188 -7.597656 10.9375 -7.425781 10.9375 -7.21875 C 10.9375 -7.144531 10.914062 -7.050781 10.875 -6.9375 L 8.578125 -0.453125 C 8.515625 -0.285156 8.410156 -0.160156 8.265625 -0.078125 C 8.128906 -0.00390625 7.984375 0.0195312 7.828125 0 C 7.554688 -0.0195312 7.351562 -0.171875 7.21875 -0.453125 L 5.65625 -4.53125 L 4.21875 -0.453125 C 4.15625 -0.304688 4.066406 -0.195312 3.953125 -0.125 C 3.847656 -0.0507812 3.726562 -0.0078125 3.59375 0 C 3.445312 0.0195312 3.300781 -0.0078125 3.15625 -0.09375 C 3.007812 -0.175781 2.910156 -0.296875 2.859375 -0.453125 L 0.546875 -6.9375 C 0.515625 -7.019531 0.5 -7.113281 0.5 -7.21875 C 0.5 -7.414062 0.5625 -7.582031 0.6875 -7.71875 C 0.820312 -7.863281 0.992188 -7.9375 1.203125 -7.9375 C 1.535156 -7.9375 1.753906 -7.785156 1.859375 -7.484375 L 3.640625 -2.4375 L 5.0625 -6.171875 C 5.1875 -6.460938 5.410156 -6.609375 5.734375 -6.609375 C 6.035156 -6.609375 6.238281 -6.460938 6.34375 -6.171875 L 7.796875 -2.484375 L 9.5625 -7.484375 C 9.664062 -7.785156 9.894531 -7.9375 10.25 -7.9375 Z M 10.25 -7.9375 "/></g></g></g><g fill="#ffffff" fill-opacity="1"><g transform="translate(194.847286, 207.153342)"><g/></g></g><g fill="#ffffff" fill-opacity="1"><g transform="translate(208.78228, 207.153342)"><g><path d="M 5.015625 -8.046875 C 5.691406 -8.046875 6.304688 -7.867188 6.859375 -7.515625 C 7.410156 -7.160156 7.84375 -6.671875 8.15625 -6.046875 C 8.46875 -5.429688 8.625 -4.734375 8.625 -3.953125 C 8.625 -3.179688 8.46875 -2.476562 8.15625 -1.84375 C 7.84375 -1.21875 7.410156 -0.726562 6.859375 -0.375 C 6.304688 -0.0195312 5.703125 0.15625 5.046875 0.15625 C 4.523438 0.15625 4.035156 0.0390625 3.578125 -0.1875 C 3.128906 -0.425781 2.765625 -0.710938 2.484375 -1.046875 L 2.484375 -0.609375 C 2.484375 -0.410156 2.414062 -0.238281 2.28125 -0.09375 C 2.144531 0.0390625 1.972656 0.109375 1.765625 0.109375 C 1.566406 0.109375 1.398438 0.0390625 1.265625 -0.09375 C 1.128906 -0.226562 1.0625 -0.398438 1.0625 -0.609375 L 1.0625 -10.375 C 1.0625 -10.582031 1.125 -10.753906 1.25 -10.890625 C 1.382812 -11.023438 1.554688 -11.09375 1.765625 -11.09375 C 1.972656 -11.09375 2.144531 -11.023438 2.28125 -10.890625 C 2.414062 -10.753906 2.484375 -10.582031 2.484375 -10.375 L 2.484375 -6.71875 C 2.722656 -7.082031 3.070312 -7.394531 3.53125 -7.65625 C 4 -7.914062 4.492188 -8.046875 5.015625 -8.046875 Z M 4.84375 -1.171875 C 5.300781 -1.171875 5.710938 -1.289062 6.078125 -1.53125 C 6.453125 -1.78125 6.742188 -2.117188 6.953125 -2.546875 C 7.160156 -2.972656 7.265625 -3.441406 7.265625 -3.953125 C 7.265625 -4.472656 7.160156 -4.941406 6.953125 -5.359375 C 6.742188 -5.785156 6.453125 -6.117188 6.078125 -6.359375 C 5.710938 -6.597656 5.300781 -6.71875 4.84375 -6.71875 C 4.375 -6.71875 3.953125 -6.597656 3.578125 -6.359375 C 3.210938 -6.117188 2.925781 -5.789062 2.71875 -5.375 C 2.519531 -4.957031 2.421875 -4.484375 2.421875 -3.953125 C 2.421875 -3.429688 2.519531 -2.957031 2.71875 -2.53125 C 2.925781 -2.113281 3.210938 -1.78125 3.578125 -1.53125 C 3.953125 -1.289062 4.375 -1.171875 4.84375 -1.171875 Z M 4.84375 -1.171875 "/></g></g></g><g fill="#ffffff" fill-opacity="1"><g transform="translate(227.772267, 207.153342)"><g><path d="M 7.4375 -7.96875 C 7.644531 -7.96875 7.816406 -7.898438 7.953125 -7.765625 C 8.085938 -7.628906 8.15625 -7.453125 8.15625 -7.234375 L 8.15625 -0.71875 C 8.15625 -0.519531 8.085938 -0.347656 7.953125 -0.203125 C 7.816406 -0.0664062 7.644531 0 7.4375 0 C 7.226562 0 7.054688 -0.0664062 6.921875 -0.203125 C 6.796875 -0.335938 6.734375 -0.507812 6.734375 -0.71875 L 6.734375 -1.109375 C 6.472656 -0.753906 6.117188 -0.453125 5.671875 -0.203125 C 5.222656 0.0351562 4.738281 0.15625 4.21875 0.15625 C 3.53125 0.15625 2.910156 -0.0195312 2.359375 -0.375 C 1.804688 -0.726562 1.367188 -1.21875 1.046875 -1.84375 C 0.734375 -2.46875 0.578125 -3.164062 0.578125 -3.9375 C 0.578125 -4.71875 0.734375 -5.421875 1.046875 -6.046875 C 1.367188 -6.671875 1.804688 -7.160156 2.359375 -7.515625 C 2.910156 -7.867188 3.515625 -8.046875 4.171875 -8.046875 C 4.703125 -8.046875 5.191406 -7.929688 5.640625 -7.703125 C 6.097656 -7.484375 6.460938 -7.207031 6.734375 -6.875 L 6.734375 -7.234375 C 6.734375 -7.441406 6.796875 -7.613281 6.921875 -7.75 C 7.054688 -7.894531 7.226562 -7.96875 7.4375 -7.96875 Z M 4.375 -1.171875 C 4.84375 -1.171875 5.257812 -1.289062 5.625 -1.53125 C 6 -1.769531 6.285156 -2.097656 6.484375 -2.515625 C 6.691406 -2.941406 6.796875 -3.414062 6.796875 -3.9375 C 6.796875 -4.457031 6.691406 -4.925781 6.484375 -5.34375 C 6.285156 -5.769531 6 -6.101562 5.625 -6.34375 C 5.257812 -6.59375 4.84375 -6.71875 4.375 -6.71875 C 3.90625 -6.71875 3.488281 -6.597656 3.125 -6.359375 C 2.757812 -6.117188 2.472656 -5.785156 2.265625 -5.359375 C 2.066406 -4.941406 1.96875 -4.46875 1.96875 -3.9375 C 1.96875 -3.414062 2.066406 -2.941406 2.265625 -2.515625 C 2.472656 -2.097656 2.757812 -1.769531 3.125 -1.53125 C 3.488281 -1.289062 3.90625 -1.171875 4.375 -1.171875 Z M 4.375 -1.171875 "/></g></g></g><g fill="#ffffff" fill-opacity="1"><g transform="translate(246.76226, 207.153342)"><g><path d="M 4.984375 -8.046875 C 5.242188 -8.046875 5.46875 -7.976562 5.65625 -7.84375 C 5.84375 -7.707031 5.9375 -7.535156 5.9375 -7.328125 C 5.9375 -7.085938 5.875 -6.90625 5.75 -6.78125 C 5.625 -6.65625 5.472656 -6.59375 5.296875 -6.59375 C 5.203125 -6.59375 5.066406 -6.625 4.890625 -6.6875 C 4.679688 -6.757812 4.515625 -6.796875 4.390625 -6.796875 C 4.085938 -6.796875 3.785156 -6.6875 3.484375 -6.46875 C 3.191406 -6.257812 2.953125 -5.96875 2.765625 -5.59375 C 2.578125 -5.21875 2.484375 -4.796875 2.484375 -4.328125 L 2.484375 -0.71875 C 2.484375 -0.519531 2.414062 -0.347656 2.28125 -0.203125 C 2.144531 -0.0664062 1.972656 0 1.765625 0 C 1.554688 0 1.382812 -0.0664062 1.25 -0.203125 C 1.125 -0.335938 1.0625 -0.507812 1.0625 -0.71875 L 1.0625 -7.140625 C 1.0625 -7.335938 1.128906 -7.503906 1.265625 -7.640625 C 1.398438 -7.785156 1.566406 -7.859375 1.765625 -7.859375 C 1.972656 -7.859375 2.144531 -7.785156 2.28125 -7.640625 C 2.414062 -7.503906 2.484375 -7.335938 2.484375 -7.140625 L 2.484375 -6.375 C 2.703125 -6.863281 3.03125 -7.257812 3.46875 -7.5625 C 3.914062 -7.875 4.421875 -8.035156 4.984375 -8.046875 Z M 4.984375 -8.046875 "/></g></g></g><path stroke-linecap="butt" transform="matrix(0.75, 0.00071126, -0.00071126, 0.75, 88.645033, 186.562488)" fill="none" stroke-linejoin="miter" d="M -0.000194916 0.500017 L 263.614524 0.500019 " stroke="#ffffff" stroke-width="1" stroke-opacity="1" stroke-miterlimit="4"/></svg>